<svg width="196" height="104" xmlns="http://www.w3.org/2000/svg" xmlns:xlink="http://www.w3.org/1999/xlink" xml:space="preserve" overflow="hidden"><defs><clipPath id="clip0"><rect x="58" y="34" width="196" height="104"/></clipPath><clipPath id="clip1"><rect x="58" y="34" width="196" height="104"/></clipPath><clipPath id="clip2"><rect x="59" y="35" width="195" height="103"/></clipPath><clipPath id="clip3"><rect x="59" y="35" width="195" height="103"/></clipPath><clipPath id="clip4"><rect x="59" y="35" width="195" height="103"/></clipPath><clipPath id="clip5"><rect x="58" y="35" width="196" height="103"/></clipPath></defs><g clip-path="url(#clip0)" transform="translate(-58 -34)"><g clip-path="url(#clip1)"><g clip-path="url(#clip2)"><g clip-path="url(#clip3)"><g clip-path="url(#clip4)"><g clip-path="url(#clip5)"><path d="M24.766 24.766 39.1032 24.766 39.1032 49.3848C40.8324 48.205 42.8772 47.5739 44.9705 47.5739 47.0639 47.5739 49.1087 48.205 50.8379 49.3848L50.8379 13.0313 13.0313 13.0313 13.0313 35.5718C16.3926 32.9444 20.502 31.4533 24.766 31.3138L24.766 24.766ZM13.0313 87.3661 24.766 87.3661 24.766 73.8933 37.7973 80.4136 37.7973 68.8353 30.4402 65.1567 37.7973 61.4781 37.7973 49.5228 24.766 49.5228 24.766 36.5006 13.0313 36.5006 13.0313 49.532 2.35675e-05 49.532 2.35675e-05 61.2574 15.1465 61.2574 2.35675e-05 68.8353 2.35675e-05 80.4136 13.0313 73.8933 13.0313 87.3661ZM21.5104 99.1007 16.9122 99.1007 16.9122 88.6352 13.0313 88.6352 13.0313 103 24.766 103C23.3056 102.05 22.1699 100.677 21.5104 99.0639L21.5104 99.1007ZM29.3274 88.672C27.9083 88.672 26.5211 89.0929 25.3412 89.8815 24.1614 90.6702 23.242 91.7909 22.6994 93.1019 22.1567 94.4133 22.0152 95.8562 22.2927 97.2476 22.5702 98.64 23.2544 99.9183 24.2584 100.921 25.2626 101.923 26.5416 102.606 27.9337 102.881 29.3258 103.157 30.7683 103.014 32.0789 102.469 33.3895 101.925 34.5091 101.004 35.2963 99.8236 36.0833 98.6427 36.5025 97.255 36.5006 95.836 36.5031 94.8924 36.3194 93.9572 35.9601 93.0835 35.6008 92.2107 35.073 91.4174 34.4067 90.7486 33.7405 90.0798 32.949 89.5489 32.0774 89.1863 31.2059 88.8237 30.2714 88.6364 29.3274 88.6352L29.3274 88.672ZM29.3274 99.1007C28.6814 99.1026 28.0492 98.9122 27.5111 98.5554 26.973 98.1976 26.5532 97.6881 26.3046 97.0913 26.0561 96.4954 25.9902 95.8387 26.1151 95.2051 26.2401 94.5706 26.5503 93.9884 27.0065 93.5304 27.4627 93.0734 28.0444 92.7616 28.678 92.6347 29.3115 92.5078 29.9684 92.5722 30.5654 92.8186 31.1626 93.066 31.673 93.4845 32.0321 94.0215 32.3913 94.5586 32.5829 95.1895 32.5829 95.836 32.5733 96.694 32.2263 97.5134 31.6171 98.1176 31.0079 98.7218 30.1853 99.0612 29.3274 99.0639L29.3274 99.1007ZM46.9018 95.7992C46.9018 96.6627 46.5589 97.4904 45.9483 98.1011 45.3377 98.7117 44.5097 99.0547 43.6462 99.0547 42.7829 99.0547 41.9548 98.7117 41.3443 98.1011 40.7337 97.4904 40.3907 96.6627 40.3907 95.7992L40.3907 88.6352 36.5006 88.6352 36.5006 91.2929C37.3479 92.643 37.7973 94.2055 37.7973 95.7992 37.8015 96.8632 37.6017 97.919 37.2087 98.9076 37.9097 100.376 39.0894 101.562 40.554 102.271 42.0186 102.979 43.6806 103.167 45.2669 102.806 46.8531 102.445 48.2689 101.553 49.2815 100.28 50.294 99.006 50.8429 97.426 50.8379 95.7992L50.8379 88.6352 46.9018 88.6352 46.9018 95.7992ZM2.35675e-05 95.7992C-0.00239458 96.7428 0.181295 97.678 0.540587 98.5517 0.899879 99.4244 1.42773 100.218 2.09394 100.887 2.76015 101.555 3.55167 102.086 4.42322 102.449 5.29477 102.811 6.22926 102.999 7.17324 103L11.7714 103 11.7714 99.0915 7.17324 99.0915C6.73054 99.1154 6.2877 99.0483 5.8717 98.8947 5.4557 98.7421 5.07527 98.5057 4.75359 98.2004 4.43191 97.8951 4.17572 97.5281 4.00065 97.1207 3.82558 96.7133 3.73529 96.2747 3.73529 95.8314 3.73529 95.3881 3.82558 94.9494 4.00065 94.542 4.17572 94.1346 4.43191 93.7677 4.75359 93.4624 5.07527 93.1571 5.4557 92.9207 5.8717 92.7681 6.2877 92.6145 6.73054 92.5473 7.17324 92.5713L11.7714 92.5713 11.7714 88.6352 7.17324 88.6352C5.27312 88.6376 3.45138 89.3929 2.10694 90.7356 0.76249 92.0783 0.00488788 93.8992 2.35675e-05 95.7992ZM155.107 13.0313 143.382 13.0313 143.382 24.766 155.107 24.766 155.107 13.0313ZM155.76 31.2679C160.244 31.2645 164.601 32.76 168.138 35.5166L168.138 26.0719 142.076 26.0719 142.076 13.0313 130.341 13.0313 130.341 48.0421C132.206 48.4871 133.982 49.2459 135.592 50.2861 135.901 45.1444 138.16 40.3142 141.907 36.7804 145.655 33.2465 150.609 31.2749 155.76 31.2679ZM63.8692 87.3661 63.8692 65.7913 76.9005 61.4413 76.9005 49.7803 39.1032 62.3794 39.1032 74.0405 52.1346 69.6997 52.1346 87.3661 63.8692 87.3661ZM168.138 13.0313 156.413 13.0313 156.413 24.766 168.138 24.766 168.138 13.0313ZM89.9687 13.0313 52.1346 13.0313 52.1346 24.766 89.9411 24.766 89.9687 13.0313ZM81.0757 44.6579C84.0589 43.9739 87.186 44.3275 89.9411 45.6603L89.9411 26.0719 52.1346 26.0719 52.1346 36.7029C54.2393 34.4322 56.9268 32.7827 59.9044 31.9344 62.8821 31.086 66.0354 31.0713 69.0208 31.8919 72.0062 32.7125 74.709 34.3369 76.8347 36.5879 78.9604 38.839 80.4274 41.6304 81.0757 44.6579ZM78.1696 61.2574 115.967 61.2574 115.967 49.532 78.1696 49.532 78.1696 61.2574ZM96.7004 87.3661 103.221 74.3347 116.004 74.3347 116.004 62.5357 78.1696 62.5357 78.1696 74.298 91.6424 74.298 85.1221 87.3661 96.7004 87.3661ZM81.462 97.1511 75.2636 88.6352 71.0332 88.6352 71.0332 103 74.9509 103 74.9509 94.4473 81.1401 103 84.2577 103 85.3704 99.6341 85.3704 88.6352 81.462 88.6352 81.462 97.1511ZM59.3078 88.6352 52.1346 88.6352 52.1346 103 59.3078 103C61.1646 102.934 62.9232 102.149 64.2132 100.812 65.5033 99.475 66.2242 97.6891 66.2242 95.8314 66.2242 93.9737 65.5033 92.1878 64.2132 90.8508 62.9232 89.5137 61.1646 88.7293 59.3078 88.6628L59.3078 88.6352ZM59.3078 99.0639 56.0982 99.0639 56.0982 92.5437 59.3538 92.5437C60.1885 92.5878 60.9743 92.9511 61.5495 93.5571 62.1247 94.1641 62.4453 94.9678 62.4453 95.8038 62.4453 96.6397 62.1247 97.4435 61.5495 98.0505 60.9743 98.6565 60.1885 99.0198 59.3538 99.0639L59.3078 99.0639ZM168.138 36.5282 156.413 36.5282 156.413 49.532 143.382 49.532 143.382 74.298 155.107 74.298 155.107 61.2574 169.444 61.2574 169.444 87.3661 181.17 87.3661 181.17 49.532 168.138 49.532 168.138 36.5282ZM165.536 97.2246 159.337 88.7087 155.107 88.7087 155.107 103 159.015 103 159.015 94.4473 165.214 102.972 169.444 102.972 169.444 100.315C168.591 98.9646 168.138 97.4003 168.138 95.8038 168.138 94.2073 168.591 92.643 169.444 91.2929L169.444 88.6352 165.536 88.6352 165.536 97.2246ZM169.444 48.2996 181.17 48.2996 181.17 36.5006 169.444 36.5006 169.444 48.2996ZM182.485 36.5742 182.485 48.2261 194.21 48.2261 194.21 36.5006 182.485 36.5742ZM149.902 103 153.81 103 153.81 88.6352 149.902 88.6352 149.902 103ZM182.494 103 186.402 103 186.402 99.0915 182.494 99.0915 182.494 103ZM169.453 95.8268C169.456 97.7286 170.212 99.5513 171.558 100.897 172.902 102.241 174.725 102.997 176.627 103L181.225 103 181.225 99.0915 176.627 99.0915C176.184 99.1154 175.741 99.0483 175.325 98.8947 174.909 98.7421 174.529 98.5057 174.207 98.2004 173.885 97.8951 173.629 97.5281 173.454 97.1207 173.279 96.7133 173.189 96.2747 173.189 95.8314 173.189 95.3881 173.279 94.9494 173.454 94.542 173.629 94.1346 173.885 93.7677 174.207 93.4624 174.529 93.1571 174.909 92.9207 175.325 92.7681 175.741 92.6145 176.184 92.5473 176.627 92.5713L181.225 92.5713 181.225 88.6352 176.627 88.6352C174.725 88.6352 172.901 89.3894 171.555 90.7323 170.208 92.0756 169.449 93.8974 169.444 95.7992L169.453 95.8268ZM97.7672 92.5713 103 92.5713 103 103 106.908 103 106.908 92.5437 112.123 92.5437 112.123 88.6352 97.758 88.6352 97.7672 92.5713ZM132.962 92.0287 132.962 103 144.687 103 144.687 98.9628 137.523 98.9628 136.87 98.8892 136.87 97.5925 144.687 97.5925 144.687 94.0703 137.523 94.0703 136.87 94.0059 136.87 92.7 144.687 92.7 144.687 88.6352 134.075 88.6352 132.962 92.0287ZM90.4101 88.6352 85.6279 103 89.4629 103 90.0146 101.372 95.0727 101.372 95.6429 103 99.4778 103 94.7232 88.6352 90.4101 88.6352ZM91.1826 97.8316 92.5437 93.7484 93.9047 97.8316 91.1826 97.8316ZM113.401 102.982 117.31 102.982 117.31 88.6352 113.401 88.6352 113.401 102.982ZM125.78 97.8684 122.708 88.672 118.864 88.672 123.646 103.009 127.922 103.009 132.695 88.672 128.86 88.672 125.78 97.8684ZM123.83 87.3661 135.555 87.3661 135.555 76.0637 142.076 74.4359 142.076 62.7472 117.31 68.9732 117.31 80.6343 123.83 78.9973 123.83 87.3661ZM126.432 47.6099C127.304 47.6175 128.174 47.6913 129.035 47.8306L129.035 13.0313 116.004 13.0313 116.004 0 104.278 0 104.278 13.0313 91.2378 13.0313 91.2378 35.6086C95.0203 34.1858 99.1899 34.1858 102.972 35.6086L102.972 24.766 117.31 24.766 117.31 50.2861C120.025 48.5199 123.194 47.5776 126.432 47.5731L126.432 47.6099Z" fill="#BF0008" fill-rule="nonzero" fill-opacity="1" transform="matrix(1.00018 0 0 1 59 35)"/></g></g></g></g></g></g></svg>