<svg width="248" height="15" xmlns="http://www.w3.org/2000/svg" xmlns:xlink="http://www.w3.org/1999/xlink" xml:space="preserve" overflow="hidden"><g transform="translate(-924 -677)"><g><g><g><g><path d="M8.01202 9.42514C7.22119 9.85296 6.18403 10.0604 5.23763 10.0604 2.12617 10.0604 0.0259289 7.98609 0.0259289 5.25059 0.0259289 2.45028 2.22988 0.388933 5.27652 0.388933 6.23589 0.388933 7.15636 0.596363 7.88237 0.972332L7.88237 3.52632C7.18229 3.0985 6.26182 2.76142 5.35431 2.76142 3.77265 2.76142 2.6966 3.78561 2.6966 5.2117 2.6966 6.58593 3.70783 7.68791 5.41913 7.68791 6.32664 7.68791 7.24712 7.36379 8.01202 6.88411L8.01202 9.42514ZM9.34392 9.91779 9.34392 0.0129636 11.9109 0.0129636 11.9109 9.91779 9.34392 9.91779ZM16.8466 10.0604C14.7074 10.0604 13.1647 8.58245 13.1647 6.67668 13.1647 4.77091 14.7074 3.29296 16.8466 3.29296 18.9857 3.29296 20.5285 4.77091 20.5285 6.67668 20.5285 8.58245 18.9857 10.0604 16.8466 10.0604ZM16.8466 7.92127C17.5077 7.92127 17.9874 7.37676 17.9874 6.67668 17.9874 5.9766 17.5077 5.4321 16.8466 5.4321 16.1854 5.4321 15.7057 5.9766 15.7057 6.67668 15.7057 7.37676 16.1854 7.92127 16.8466 7.92127ZM25.8725 9.91779 25.8725 9.52885 25.8466 9.51589C25.3539 9.85296 24.7576 10.0604 24.0964 10.0604 23.3574 10.0604 22.7481 9.82704 22.3462 9.37328 21.9443 8.91953 21.7628 8.37502 21.7628 7.45455L21.7628 3.43557 24.3298 3.43557 24.3298 7.05265C24.3298 7.40269 24.3816 7.58419 24.5242 7.73976 24.6668 7.89534 24.8743 7.94719 25.0947 7.94719 25.3669 7.94719 25.5873 7.86941 25.8207 7.73976L25.8207 3.43557 28.3876 3.43557 28.3876 9.91779 25.8725 9.91779ZM34.1339 9.91779 34.1339 9.59368 34.108 9.58071C33.6802 9.90482 33.1227 10.0604 32.5782 10.0604 31.0484 10.0604 29.6612 8.82877 29.6612 6.81929 29.6612 4.75795 31.1521 3.29296 33.019 3.29296 33.3949 3.29296 33.7579 3.37075 34.0561 3.48743L34.0821 3.47447 34.0821 0.0129636 36.649 0.0129636 36.649 9.91779 34.1339 9.91779ZM33.369 8.07684C33.6542 8.07684 33.9006 7.98609 34.0821 7.88237L34.0821 5.52285C33.9006 5.4321 33.7061 5.38024 33.4338 5.38024 32.6041 5.38024 32.2541 6.01549 32.2541 6.71557 32.2541 7.49344 32.63 8.07684 33.369 8.07684ZM41.66 9.91779 41.66 0.531541 44.1621 0.531541 46.6513 3.92822C47.1698 4.6283 47.6236 5.26356 48.0903 5.93771L48.1162 5.93771C48.1033 5.13391 48.0903 4.33012 48.0903 3.53929L48.0903 0.531541 50.6573 0.531541 50.6573 9.91779 48.1551 9.91779 45.666 6.52111C45.1474 5.82103 44.6936 5.18577 44.2269 4.51162L44.201 4.51162C44.2139 5.31542 44.2269 6.11921 44.2269 6.91004L44.2269 9.91779 41.66 9.91779ZM58.7681 9.82704C58.444 9.95668 58.0161 10.0474 57.5365 10.0474 56.8623 10.0474 56.3178 9.86593 55.9418 9.55478 55.4751 9.85296 54.8658 10.0604 54.1916 10.0604 52.8304 10.0604 51.8969 9.36032 51.8969 8.10277 51.8969 6.70261 52.9211 6.10625 54.5546 6.10625 54.8658 6.10625 55.1899 6.13217 55.514 6.18403L55.514 6.02846C55.514 5.54877 55.1251 5.35431 54.3083 5.35431 53.5434 5.35431 52.8952 5.53581 52.4803 5.70435L52.4803 3.75968C53.0119 3.51336 53.8935 3.29296 54.8787 3.29296 56.7456 3.29296 58.0291 4.00601 58.0291 5.78213L58.0291 7.64901C58.0291 7.9083 58.1587 8.07684 58.4699 8.07684 58.5736 8.07684 58.6773 8.06387 58.7681 8.02498L58.7681 9.82704ZM54.9825 8.40095C55.1899 8.40095 55.3973 8.34909 55.501 8.28427L55.501 7.48047C55.4103 7.45455 55.2288 7.42862 55.0862 7.42862 54.6584 7.42862 54.3731 7.55826 54.3731 7.92127 54.3731 8.28427 54.5935 8.40095 54.9825 8.40095ZM59.231 5.45802 59.231 3.43557 60.2163 3.43557 60.2163 1.95763 62.7703 1.3483 62.7703 3.43557 64.3131 3.43557 64.3131 5.45802 62.7703 5.45802 62.7703 7.13043C62.7703 7.68791 63.0166 7.99905 63.5482 7.99905 63.8334 7.99905 64.1186 7.92127 64.3131 7.84348L64.3131 9.74925C63.9501 9.91779 63.3408 10.0604 62.7185 10.0604 61.0201 10.0604 60.2163 9.13992 60.2163 7.41565L60.2163 5.45802 59.231 5.45802ZM66.9146 2.74846C66.1627 2.74846 65.5663 2.1521 65.5663 1.41312 65.5663 0.67415 66.1627 0.0777859 66.9146 0.0777859 67.6665 0.0777859 68.2629 0.67415 68.2629 1.41312 68.2629 2.1521 67.6665 2.74846 66.9146 2.74846ZM65.6311 9.91779 65.6311 3.43557 68.1981 3.43557 68.1981 9.91779 65.6311 9.91779ZM71.6298 9.91779 69.0758 3.43557 71.7205 3.43557 72.265 5.14688C72.4725 5.7951 72.6539 6.3785 72.8225 6.9619L72.8484 6.9619C73.0429 6.3785 73.2373 5.80806 73.4707 5.15984L74.093 3.43557 76.5173 3.43557 73.9504 9.91779 71.6298 9.91779ZM83.1013 9.55478C82.4401 9.87889 81.4808 10.0604 80.5862 10.0604 78.3045 10.0604 76.8006 8.81581 76.8006 6.71557 76.8006 4.57644 78.3952 3.29296 80.2621 3.29296 81.8956 3.29296 83.4514 4.25233 83.4514 6.61186 83.4514 6.81929 83.4384 7.09154 83.4125 7.28601L79.3935 7.28601C79.6009 7.96016 80.2232 8.19352 80.9622 8.19352 81.6493 8.19352 82.4013 7.98609 83.1013 7.61012L83.1013 9.55478ZM79.3416 5.95067 81.1567 5.95067C81.053 5.31542 80.677 5.12095 80.2492 5.12095 79.7565 5.12095 79.4454 5.40617 79.3416 5.95067ZM88.1665 9.91779 88.1665 0.531541 90.8372 0.531541 90.8372 9.91779 88.1665 9.91779ZM92.5271 9.91779 92.5271 3.43557 95.0422 3.43557 95.0422 3.88933 95.0681 3.90229C95.5608 3.52632 96.1831 3.29296 96.8832 3.29296 97.6221 3.29296 98.1926 3.52632 98.6074 3.96711 99.0223 4.40791 99.1779 4.95241 99.1779 5.84696L99.1779 9.91779 96.6109 9.91779 96.6109 6.24885C96.6109 5.91178 96.5591 5.71731 96.4294 5.58767 96.2998 5.45802 96.1053 5.40617 95.8719 5.40617 95.5738 5.40617 95.3274 5.50988 95.0941 5.65249L95.0941 9.91779 92.5271 9.91779ZM106.168 9.54182C105.649 9.90482 104.832 10.0604 104.106 10.0604 101.863 10.0604 100.411 8.68617 100.411 6.70261 100.411 4.58941 102.071 3.29296 104.171 3.29296 104.923 3.29296 105.636 3.48743 106.116 3.79858L106.116 5.91178C105.584 5.60063 105.027 5.3932 104.456 5.3932 103.601 5.3932 103.004 5.92474 103.004 6.67668 103.004 7.45455 103.614 7.96016 104.495 7.96016 105.066 7.96016 105.779 7.71383 106.168 7.44158L106.168 9.54182ZM109.031 10.0604C108.253 10.0604 107.644 9.4381 107.644 8.6732 107.644 7.9083 108.253 7.28601 109.031 7.28601 109.809 7.28601 110.418 7.9083 110.418 8.6732 110.418 9.4381 109.809 10.0604 109.031 10.0604ZM114.742 9.91779 118.476 0.531541 121.237 0.531541 124.971 9.91779 122.067 9.91779 121.406 7.99905 118.191 7.99905 117.504 9.91779 114.742 9.91779ZM118.904 6.02846 120.719 6.02846 120.408 5.13391C120.226 4.60237 120.006 3.95415 119.837 3.38372L119.811 3.38372C119.63 3.96711 119.41 4.61534 119.215 5.15984L118.904 6.02846ZM125.943 9.91779 125.943 0.0129636 128.51 0.0129636 128.51 9.91779 125.943 9.91779ZM130.14 9.91779 130.14 0.0129636 132.707 0.0129636 132.707 9.91779 130.14 9.91779ZM137.711 9.91779 137.711 0.531541 141.484 0.531541C142.508 0.531541 143.338 0.738972 144.025 1.24459 144.712 1.7502 145.14 2.52806 145.14 3.53929 145.14 4.73202 144.544 5.63953 143.545 6.13217L145.905 9.91779 142.936 9.91779 140.978 6.54704 140.356 6.54704 140.356 9.91779 137.711 9.91779ZM140.356 4.64126 141.212 4.64126C141.678 4.64126 141.938 4.57644 142.158 4.42087 142.379 4.2653 142.495 3.98008 142.495 3.65597 142.495 3.33186 142.379 3.03368 142.158 2.8781 141.938 2.72253 141.678 2.65771 141.212 2.65771L140.356 2.65771 140.356 4.64126ZM147.875 2.74846C147.123 2.74846 146.527 2.1521 146.527 1.41312 146.527 0.67415 147.123 0.0777859 147.875 0.0777859 148.627 0.0777859 149.223 0.67415 149.223 1.41312 149.223 2.1521 148.627 2.74846 147.875 2.74846ZM146.591 9.91779 146.591 3.43557 149.158 3.43557 149.158 9.91779 146.591 9.91779ZM151.165 10.2808C151.852 10.6438 152.668 10.8642 153.343 10.8642 154.237 10.8642 154.782 10.4234 154.782 9.52885L154.782 9.42514 154.756 9.41217C154.393 9.68443 153.9 9.80111 153.394 9.80111 151.8 9.80111 150.426 8.60838 150.426 6.68964 150.426 4.74498 151.852 3.29296 153.9 3.29296 154.626 3.29296 155.235 3.47447 155.767 3.75968L157.336 3.38372 157.336 9.60664C157.336 11.7717 155.793 12.9126 153.628 12.9126 152.694 12.9126 151.774 12.7051 151.165 12.4199L151.165 10.2808ZM153.018 6.62482C153.018 7.35083 153.394 7.86941 154.095 7.86941 154.367 7.86941 154.613 7.79162 154.782 7.70087L154.782 5.45802C154.613 5.38024 154.406 5.32838 154.172 5.32838 153.343 5.32838 153.018 5.95067 153.018 6.62482ZM158.961 9.91779 158.961 0.0129636 161.528 0.0129636 161.528 3.85044 161.554 3.8634C162.033 3.51336 162.643 3.29296 163.317 3.29296 164.056 3.29296 164.626 3.52632 165.041 3.96711 165.456 4.40791 165.611 4.95241 165.611 5.84696L165.611 9.91779 163.045 9.91779 163.045 6.24885C163.045 5.91178 162.993 5.71731 162.863 5.58767 162.733 5.45802 162.539 5.40617 162.306 5.40617 162.007 5.40617 161.761 5.50988 161.528 5.65249L161.528 9.91779 158.961 9.91779ZM166.664 5.45802 166.664 3.43557 167.649 3.43557 167.649 1.95763 170.203 1.3483 170.203 3.43557 171.746 3.43557 171.746 5.45802 170.203 5.45802 170.203 7.13043C170.203 7.68791 170.45 7.99905 170.981 7.99905 171.267 7.99905 171.552 7.92127 171.746 7.84348L171.746 9.74925C171.383 9.91779 170.774 10.0604 170.152 10.0604 168.453 10.0604 167.649 9.13992 167.649 7.41565L167.649 5.45802 166.664 5.45802ZM175.683 10.0604C174.866 10.0604 173.686 9.91779 172.87 9.54182L172.87 7.5453C173.868 8.0898 175.061 8.29723 175.566 8.29723 175.877 8.29723 176.059 8.20648 176.059 7.99905 176.059 7.79162 175.864 7.70087 175.333 7.61012 174.801 7.51937 174.049 7.36379 173.531 7.03968 173.012 6.71557 172.766 6.23589 172.766 5.54877 172.766 4.08379 173.907 3.29296 175.67 3.29296 176.448 3.29296 177.498 3.47447 178.289 3.82451L178.289 5.69138C177.329 5.25059 176.318 5.06909 175.838 5.06909 175.514 5.06909 175.385 5.17281 175.385 5.35431 175.385 5.5747 175.579 5.62656 176.098 5.71731 176.616 5.80806 177.329 5.93771 177.874 6.26182 178.418 6.58593 178.678 7.10451 178.678 7.79162 178.678 9.29549 177.472 10.0604 175.683 10.0604ZM183.231 9.91779 183.231 0.531541 187.003 0.531541C188.028 0.531541 188.857 0.738972 189.544 1.24459 190.232 1.7502 190.659 2.52806 190.659 3.53929 190.659 4.73202 190.063 5.63953 189.065 6.13217L191.424 9.91779 188.455 9.91779 186.498 6.54704 185.876 6.54704 185.876 9.91779 183.231 9.91779ZM185.876 4.64126 186.731 4.64126C187.198 4.64126 187.457 4.57644 187.678 4.42087 187.898 4.2653 188.015 3.98008 188.015 3.65597 188.015 3.33186 187.898 3.03368 187.678 2.8781 187.457 2.72253 187.198 2.65771 186.731 2.65771L185.876 2.65771 185.876 4.64126ZM197.808 9.55478C197.147 9.87889 196.187 10.0604 195.293 10.0604 193.011 10.0604 191.507 8.81581 191.507 6.71557 191.507 4.57644 193.102 3.29296 194.969 3.29296 196.602 3.29296 198.158 4.25233 198.158 6.61186 198.158 6.81929 198.145 7.09154 198.119 7.28601L194.1 7.28601C194.308 7.96016 194.93 8.19352 195.669 8.19352 196.356 8.19352 197.108 7.98609 197.808 7.61012L197.808 9.55478ZM194.048 5.95067 195.863 5.95067C195.76 5.31542 195.384 5.12095 194.956 5.12095 194.463 5.12095 194.152 5.40617 194.048 5.95067ZM202.117 10.0604C201.3 10.0604 200.12 9.91779 199.303 9.54182L199.303 7.5453C200.302 8.0898 201.494 8.29723 202 8.29723 202.311 8.29723 202.493 8.20648 202.493 7.99905 202.493 7.79162 202.298 7.70087 201.767 7.61012 201.235 7.51937 200.483 7.36379 199.965 7.03968 199.446 6.71557 199.2 6.23589 199.2 5.54877 199.2 4.08379 200.341 3.29296 202.104 3.29296 202.882 3.29296 203.932 3.47447 204.723 3.82451L204.723 5.69138C203.763 5.25059 202.752 5.06909 202.272 5.06909 201.948 5.06909 201.819 5.17281 201.819 5.35431 201.819 5.5747 202.013 5.62656 202.532 5.71731 203.05 5.80806 203.763 5.93771 204.308 6.26182 204.852 6.58593 205.111 7.10451 205.111 7.79162 205.111 9.29549 203.906 10.0604 202.117 10.0604ZM212.215 9.55478C211.554 9.87889 210.594 10.0604 209.7 10.0604 207.418 10.0604 205.914 8.81581 205.914 6.71557 205.914 4.57644 207.509 3.29296 209.376 3.29296 211.009 3.29296 212.565 4.25233 212.565 6.61186 212.565 6.81929 212.552 7.09154 212.526 7.28601L208.507 7.28601C208.714 7.96016 209.337 8.19352 210.076 8.19352 210.763 8.19352 211.515 7.98609 212.215 7.61012L212.215 9.55478ZM208.455 5.95067 210.27 5.95067C210.166 5.31542 209.79 5.12095 209.363 5.12095 208.87 5.12095 208.559 5.40617 208.455 5.95067ZM213.892 9.91779 213.892 3.43557 216.407 3.43557 216.407 4.12269 216.433 4.13565C216.848 3.65597 217.432 3.31889 218.132 3.31889 218.3 3.31889 218.482 3.34482 218.598 3.37075L218.598 5.73028C218.365 5.67842 218.106 5.65249 217.898 5.65249 217.354 5.65249 216.887 5.78213 216.459 6.18403L216.459 9.91779 213.892 9.91779ZM221.74 9.91779 219.186 3.43557 221.83 3.43557 222.375 5.14688C222.582 5.7951 222.764 6.3785 222.932 6.9619L222.958 6.9619C223.153 6.3785 223.347 5.80806 223.581 5.15984L224.203 3.43557 226.627 3.43557 224.06 9.91779 221.74 9.91779ZM233.212 9.55478C232.551 9.87889 231.591 10.0604 230.697 10.0604 228.415 10.0604 226.911 8.81581 226.911 6.71557 226.911 4.57644 228.506 3.29296 230.373 3.29296 232.006 3.29296 233.562 4.25233 233.562 6.61186 233.562 6.81929 233.549 7.09154 233.523 7.28601L229.504 7.28601C229.712 7.96016 230.334 8.19352 231.073 8.19352 231.76 8.19352 232.512 7.98609 233.212 7.61012L233.212 9.55478ZM229.452 5.95067 231.267 5.95067C231.164 5.31542 230.788 5.12095 230.36 5.12095 229.867 5.12095 229.556 5.40617 229.452 5.95067ZM239.012 9.91779 239.012 9.59368 238.986 9.58071C238.558 9.90482 238.001 10.0604 237.456 10.0604 235.927 10.0604 234.539 8.82877 234.539 6.81929 234.539 4.75795 236.03 3.29296 237.897 3.29296 238.273 3.29296 238.636 3.37075 238.934 3.48743L238.96 3.47447 238.96 0.0129636 241.527 0.0129636 241.527 9.91779 239.012 9.91779ZM238.247 8.07684C238.533 8.07684 238.779 7.98609 238.96 7.88237L238.96 5.52285C238.779 5.4321 238.584 5.38024 238.312 5.38024 237.482 5.38024 237.132 6.01549 237.132 6.71557 237.132 7.49344 237.508 8.07684 238.247 8.07684ZM244.576 10.0604C243.798 10.0604 243.189 9.4381 243.189 8.6732 243.189 7.9083 243.798 7.28601 244.576 7.28601 245.354 7.28601 245.963 7.9083 245.963 8.6732 245.963 9.4381 245.354 10.0604 244.576 10.0604Z" fill="#BC0000" fill-rule="nonzero" fill-opacity="1" transform="matrix(1 0 0 1.00274 925 678)"/></g></g></g></g></g></svg>